<svg width="12527" height="2488" viewBox="0 0 12527 2488" fill="none" xmlns="http://www.w3.org/2000/svg">
<path fill="white" d="M2759 617.8H3356.6C3471.8 617.8 3561.2 646.6 3624.8 704.2C3689.6 761.8 3722 845.8 3722 956.2C3722 1015 3707.6 1068.4 3678.8 1116.4C3651.2 1163.2 3614 1199.2 3567.2 1224.4C3698 1267.6 3763.4 1364.2 3763.4 1514.2C3763.4 1588.6 3746.6 1653.4 3713 1708.6C3679.4 1762.6 3633.8 1804 3576.2 1832.8C3519.8 1861.6 3456.8 1876 3387.2 1876H2759V617.8ZM3320.6 1141.6C3372.2 1141.6 3413.6 1127.8 3444.8 1100.2C3476 1071.4 3491.6 1028.2 3491.6 970.6C3491.6 904.6 3476 859.6 3444.8 835.6C3414.8 810.4 3369.8 797.8 3309.8 797.8H2985.8V1141.6H3320.6ZM3335 1696C3398.6 1696 3447.2 1682.8 3480.8 1656.4C3515.6 1630 3533 1583.2 3533 1516C3533 1448.8 3515 1400.2 3479 1370.2C3443 1340.2 3390.8 1325.2 3322.4 1325.2H2985.8V1696H3335ZM4321.77 1903C4160.97 1903 4033.77 1862.8 3940.17 1782.4C3846.57 1702 3799.77 1589.8 3799.77 1445.8C3799.77 1304.2 3841.17 1192 3923.97 1109.2C4006.77 1026.4 4124.97 985 4278.57 985C4379.37 985 4465.17 1004.2 4535.97 1042.6C4607.97 1081 4661.97 1133.8 4697.97 1201C4733.97 1267 4751.97 1342.6 4751.97 1427.8V1532.2H4015.77C4031.37 1660.6 4142.97 1724.8 4350.57 1724.8C4405.77 1724.8 4462.17 1720 4519.77 1710.4C4577.37 1700.8 4627.77 1687.6 4670.97 1670.8V1845.4C4630.17 1862.2 4577.37 1876 4512.57 1886.8C4448.97 1897.6 4385.37 1903 4321.77 1903ZM4537.77 1377.4C4535.37 1309 4510.77 1256.2 4463.97 1219C4418.37 1181.8 4355.37 1163.2 4274.97 1163.2C4195.77 1163.2 4133.37 1182.4 4087.77 1220.8C4042.17 1259.2 4018.17 1311.4 4015.77 1377.4H4537.77ZM5141.44 1903C5038.24 1903 4953.64 1876 4887.64 1822C4821.64 1766.8 4788.64 1693 4788.64 1600.6C4788.64 1504.6 4819.84 1429.6 4882.24 1375.6C4944.64 1321.6 5032.24 1294.6 5145.04 1294.6C5254.24 1294.6 5348.44 1316.8 5427.64 1361.2V1337.8C5427.64 1276.6 5408.44 1232.2 5370.04 1204.6C5332.84 1177 5272.24 1163.2 5188.24 1163.2C5135.44 1163.2 5083.24 1168.6 5031.64 1179.4C4980.04 1189 4934.44 1202.8 4894.84 1220.8V1042.6C4930.84 1025.8 4978.84 1012 5038.84 1001.2C5100.04 990.4 5158.84 985 5215.24 985C5365.24 985 5476.24 1017.4 5548.24 1082.2C5620.24 1145.8 5656.24 1234.6 5656.24 1348.6V1876H5442.04V1791.4C5404.84 1827.4 5362.24 1855 5314.24 1874.2C5267.44 1893.4 5209.84 1903 5141.44 1903ZM5197.24 1737.4C5247.64 1737.4 5293.24 1727.8 5334.04 1708.6C5374.84 1688.2 5406.04 1660.6 5427.64 1625.8V1530.4C5361.64 1483.6 5286.04 1460.2 5200.84 1460.2C5079.64 1460.2 5019.04 1507 5019.04 1600.6C5019.04 1646.2 5034.04 1680.4 5064.04 1703.2C5095.24 1726 5139.64 1737.4 5197.24 1737.4ZM5755.51 1012H5975.11V1150.6C6009.91 1103.8 6059.11 1069 6122.71 1046.2C6187.51 1023.4 6261.31 1012 6344.11 1012V1184.8C6256.51 1184.8 6180.31 1198.6 6115.51 1226.2C6051.91 1252.6 6007.51 1294.6 5982.31 1352.2V1876H5755.51V1012ZM6508.32 860.8C6472.32 860.8 6441.72 848.8 6416.52 824.8C6392.52 800.8 6380.52 770.8 6380.52 734.8C6380.52 698.8 6392.52 668.8 6416.52 644.8C6441.72 619.6 6472.32 607 6508.32 607C6544.32 607 6574.92 619.6 6600.12 644.8C6625.32 668.8 6637.92 698.8 6637.92 734.8C6637.92 770.8 6625.32 800.8 6600.12 824.8C6574.92 848.8 6544.32 860.8 6508.32 860.8ZM6393.12 1012H6623.52V1876H6393.12V1012ZM6745.37 1012H6964.97V1129C7005.77 1079.8 7054.37 1043.8 7110.77 1021C7167.17 997 7226.57 985 7288.97 985C7405.37 985 7492.37 1016.8 7549.97 1080.4C7607.57 1142.8 7636.37 1226.2 7636.37 1330.6V1876H7409.57V1352.2C7409.57 1226.2 7350.77 1163.2 7233.17 1163.2C7181.57 1163.2 7132.97 1175.8 7087.37 1201C7041.77 1225 7003.37 1261.6 6972.17 1310.8V1876H6745.37V1012ZM8193.2 2290C8135.6 2290 8078 2284.6 8020.4 2273.8C7962.8 2263 7914.8 2248.6 7876.4 2230.6V2050.6C7970 2091.4 8075.6 2111.8 8193.2 2111.8C8298.8 2111.8 8374.4 2089.6 8420 2045.2C8466.8 2000.8 8490.2 1934.8 8490.2 1847.2V1791.4C8449.4 1828.6 8400.8 1856.8 8344.4 1876C8288 1894 8227.4 1903 8162.6 1903C8075 1903 7995.8 1883.8 7925 1845.4C7854.2 1805.8 7799 1751.2 7759.4 1681.6C7719.8 1612 7700 1532.2 7700 1442.2C7700 1351 7719.2 1271.2 7757.6 1202.8C7797.2 1133.2 7851.2 1079.8 7919.6 1042.6C7989.2 1004.2 8067.8 985 8155.4 985C8228.6 985 8291.6 995.2 8344.4 1015.6C8397.2 1034.8 8448.2 1067.2 8497.4 1112.8V1012H8717V1823.8C8717 1972.6 8673.8 2087.2 8587.4 2167.6C8502.2 2249.2 8370.8 2290 8193.2 2290ZM8211.2 1724.8C8276 1724.8 8333.6 1707.4 8384 1672.6C8435.6 1636.6 8471 1589.2 8490.2 1530.4V1355.8C8469.8 1297 8434.4 1250.2 8384 1215.4C8333.6 1180.6 8276 1163.2 8211.2 1163.2C8129.6 1163.2 8062.4 1189 8009.6 1240.6C7956.8 1292.2 7930.4 1359.4 7930.4 1442.2C7930.4 1525 7956.8 1592.8 8009.6 1645.6C8062.4 1698.4 8129.6 1724.8 8211.2 1724.8ZM9161.67 1903C9099.27 1903 9032.67 1895.8 8961.87 1881.4C8891.07 1867 8835.87 1847.2 8796.27 1822V1629.4C8843.07 1658.2 8898.87 1681.6 8963.67 1699.6C9028.47 1716.4 9089.67 1724.8 9147.27 1724.8C9204.87 1724.8 9246.87 1720 9273.27 1710.4C9299.67 1699.6 9312.87 1680.4 9312.87 1652.8C9312.87 1631.2 9305.67 1613.8 9291.27 1600.6C9278.07 1586.2 9255.87 1573.6 9224.67 1562.8C9194.67 1550.8 9147.87 1536.4 9084.27 1519.6C9012.27 1499.2 8955.27 1478.2 8913.27 1456.6C8872.47 1435 8841.27 1408 8819.67 1375.6C8799.27 1342 8789.07 1298.8 8789.07 1246C8789.07 1159.6 8823.27 1094.8 8891.67 1051.6C8960.07 1007.2 9052.47 985 9168.87 985C9228.87 985 9288.27 991 9347.07 1003C9407.07 1013.8 9453.87 1029.4 9487.47 1049.8V1235.2C9451.47 1213.6 9407.67 1196.2 9356.07 1183C9304.47 1169.8 9251.67 1163.2 9197.67 1163.2C9138.87 1163.2 9094.47 1169.2 9064.47 1181.2C9034.47 1192 9019.47 1213.6 9019.47 1246C9019.47 1267.6 9027.27 1285 9042.87 1298.2C9059.67 1310.2 9081.27 1321 9107.67 1330.6C9134.07 1339 9182.07 1352.2 9251.67 1370.2C9326.07 1390.6 9384.27 1412.8 9426.27 1436.8C9468.27 1460.8 9498.27 1489.6 9516.27 1523.2C9534.27 1556.8 9543.27 1598.8 9543.27 1649.2C9543.27 1726 9510.27 1787.8 9444.27 1834.6C9379.47 1880.2 9285.27 1903 9161.67 1903Z"/>
<path fill="white" d="M10505.3 1903C10327.7 1903 10193.3 1856.8 10102.1 1764.4C10012.1 1670.8 9967.05 1544.8 9967.05 1386.4V617.8H10195.7V1390C10195.7 1489.6 10223.3 1565.8 10278.5 1618.6C10334.9 1670.2 10410.5 1696 10505.3 1696C10598.9 1696 10673.3 1670.2 10728.5 1618.6C10784.9 1565.8 10813.1 1489.6 10813.1 1390V617.8H11041.7V1386.4C11041.7 1544.8 10996.7 1670.8 10906.7 1764.4C10816.7 1856.8 10682.9 1903 10505.3 1903ZM11525.2 1240.6L11069.8 617.8H11330.8L11654.8 1062.4L11980.6 617.8H12241.6L11786.2 1240.6L12250.6 1876H11989.6L11654.8 1418.8L11320 1876H11059L11525.2 1240.6Z"/>
<mask id="mask0_1_45" style="mask-type:alpha" maskUnits="userSpaceOnUse" x="4" y="0" width="2241" height="2487">
<path d="M2244 1838.44C2244 1860.23 2232.18 1880.32 2213.13 1890.9L1153.12 2479.33C1135.01 2489.39 1112.99 2489.39 1094.88 2479.33L34.8789 1890.9C15.8214 1880.32 4.00043 1860.23 4.00043 1838.44L4.00033 656.606C4.00033 634.922 15.6998 614.925 34.6024 604.301L1094.6 8.52334C1112.86 -1.73735 1135.14 -1.73732 1153.4 8.52337L2213.4 604.301C2232.3 614.926 2244 634.922 2244 656.606L2244 1838.44Z" fill="#FF0000"/>
</mask>
<g mask="url(#mask0_1_45)">
<path fill="white" fill-rule="evenodd" clip-rule="evenodd" d="M2244 1029.41C2169.77 1036.89 2018.42 1047.05 1885.5 1024C1734.59 997.826 1635.92 945.936 1595.67 921.364C1583.54 913.963 1579.93 898.609 1586.49 886.011C1607.87 844.954 1574.89 796.626 1528.87 801.576L1442.09 810.908C1439.7 811.164 1437.3 811.134 1434.92 810.818L1044.54 758.87C1040.23 758.297 1035.86 758.656 1031.76 760.118C1019.43 764.518 991.349 775.624 970.639 791.998C958.718 801.424 942.179 806.405 927.607 802.093C826.055 772.044 592.989 769.804 519.08 769.88C505.506 769.894 493.821 779.144 490.467 792.298L464.885 892.622C462.452 902.164 464.829 912.26 471.305 919.678C500.527 953.15 585.709 1050.4 646 1116C703.511 1178.57 794.154 1234.63 828.344 1254.68C836.884 1259.68 842.582 1268.33 843.739 1278.17C851.939 1347.84 890.944 1636.21 997.503 1864.5C1033.08 1940.72 1079.35 2006.46 1123.92 2069.79C1193.21 2168.23 1258.4 2260.86 1273 2378C1274.33 2388.61 1275.68 2399.5 1277.05 2410.54L1124 2495.5L4.0006 1873.75L4.00049 621.501L1124 -8L2244 621.501L2244 1029.41Z"/>
<rect fill="white" x="1412.75" y="1356" width="2436.19" height="60.8223" rx="30.4112" transform="rotate(38.3702 1412.75 1356)"/>
<rect fill="white" x="1679.75" y="1417" width="763.168" height="60.8223" rx="30.4112" transform="rotate(38.3702 1679.75 1417)"/>
<rect fill="white" x="1608.75" y="1208" width="2436.19" height="60.8223" rx="30.4112" transform="rotate(38.3702 1608.75 1208)"/>
<rect fill="white" x="1338.75" y="1627" width="2436.19" height="60.8223" rx="30.4112" transform="rotate(38.3702 1338.75 1627)"/>
<rect fill="white" x="2165.75" y="1490" width="2436.19" height="60.8223" rx="30.4112" transform="rotate(38.3702 2165.75 1490)"/>
<rect fill="white" x="1826.1" y="1846.07" width="1662.81" height="60.8223" rx="30.4112" transform="rotate(38.3702 1826.1 1846.07)"/>
<rect fill="white" x="1208.75" y="1354" width="509.884" height="60.8223" rx="30.4112" transform="rotate(38.3702 1208.75 1354)"/>
<rect fill="white" x="1639.15" y="1700.93" width="187.801" height="60.8223" rx="30.4112" transform="rotate(38.3702 1639.15 1700.93)"/>
<rect fill="white" x="1985.75" y="1348" width="172.818" height="60.8223" rx="30.4112" transform="rotate(38.3702 1985.75 1348)"/>
<path fill="white" d="M1102 864.644C1102 888.195 1082.93 895 1059.41 895C1035.89 895 980 888.195 980 864.644C980 841.092 1035.89 822 1059.41 822C1082.93 822 1102 841.092 1102 864.644Z"/>
</g>
</svg>
