<?xml version="1.0" encoding="utf-8"?>
<!DOCTYPE svg PUBLIC "-//W3C//DTD SVG 1.1//EN" "http://www.w3.org/Graphics/SVG/1.1/DTD/svg11.dtd">
<svg version="1.1" xmlns="http://www.w3.org/2000/svg" xmlns:xlink="http://www.w3.org/1999/xlink" x="0px" y="0px" width="512px"
	 height="589px" viewBox="0 0 512 589" enable-background="new 0 0 512 589" xml:space="preserve">
<g id="m">
	<path fill="#FFFFFF" d="M301.055,341.896c0.755-2.465-5.938-3.316-8.42-3.688c-12.762,2.227-64.996,67.256-57.833,70.227
		c8.734,3.771,34.047-34.252,63.787-40.861c0.767-0.172,1.254-0.059,1.309,0.551c-1.606,14.807-14.534,27.197-11.393,32.047
		c1.92,0.523,2.689,0.729,4.345,0.682c14.003-0.408,20.867-18.961,41.095-17.205c17.916,2.322,0.841,18.945,9.368,28.021
		c0.6,0.324,1.168,1.158,3.024,0.896c40.294-9.703,91.601-37.176,95.012-70.227c0-20.244-69.083-28.424-170.368-32.047
		c-22.759,0.695-150.576,1.645-205.545,23.785c-2.186,1.326,0.762,4.873,2.164,4.793c52.608-10.018,137.802-22.222,194.989-21.316
		c80.819,2.496,169.455,7.631,170.499,24.785c-0.671,22.277-40.803,47.324-74.357,57.832c-14.387,1.938,3.285-24.016-12.393-28.916
		c-21.382-1.521-29.778,11.354-38.178,15.523c-1.422,0.412-1.89,0.252-2.249-0.131c-2.906-10.314,13.473-18.625,11.531-31.371
		c-0.14-0.49-0.928-0.967-1.385-1.141c-16.799-6.395-36.873,20.256-53.207,25.25C255.762,380.846,300.3,344.361,301.055,341.896z"/>
</g>
<g id="j">
	<path fill="#FFFFFF" d="M271.979,309.293c22.296-28.653,39.552-63.345,71.226-82.619c1.543-0.988,3.918-0.238,2.337,2.021
		c-31.669,36.158-66.071,83.135-70.562,88.86c-37.077,51.049-105.077,130.756-117.666,148.713
		c-0.74,1.055-18.232,23.391-30.156,38.633c-15.424,17.311-34.31,51.936-52.202,65.057c-1.271,0-3.04-1.002-2.285-4.262
		c7.902-24.125,28.161-42.137,49.342-67.787c17.13-19.898,36.17-45.771,36.17-45.771L271.979,309.293z"/>
</g>
<g id="o">
	<circle fill="none" stroke="#FFFFFF" stroke-width="9" cx="254" cy="260.066" r="234.427"/>
</g>
</svg>
